<mxfile host="app.diagrams.net" agent="Mozilla/5.0 (Windows NT 10.0; Win64; x64) AppleWebKit/537.36 (KHTML, like Gecko) Chrome/135.0.0.0 Safari/537.36" version="26.2.6">
  <diagram id="C5RBs43oDa-KdzZeNtuy" name="Page-1">
    <mxGraphModel dx="728" dy="394" grid="1" gridSize="10" guides="1" tooltips="1" connect="1" arrows="1" fold="1" page="1" pageScale="1" pageWidth="827" pageHeight="1169" math="0" shadow="0">
      <root>
        <mxCell id="WIyWlLk6GJQsqaUBKTNV-0" />
        <mxCell id="WIyWlLk6GJQsqaUBKTNV-1" parent="WIyWlLk6GJQsqaUBKTNV-0" />
        <mxCell id="LB9oBMyxxDvLUihg9mfi-55" value="" style="edgeStyle=orthogonalEdgeStyle;rounded=0;orthogonalLoop=1;jettySize=auto;html=1;" edge="1" parent="WIyWlLk6GJQsqaUBKTNV-1" source="LB9oBMyxxDvLUihg9mfi-0" target="LB9oBMyxxDvLUihg9mfi-54">
          <mxGeometry relative="1" as="geometry" />
        </mxCell>
        <mxCell id="LB9oBMyxxDvLUihg9mfi-0" value="start" style="ellipse;whiteSpace=wrap;html=1;" vertex="1" parent="WIyWlLk6GJQsqaUBKTNV-1">
          <mxGeometry x="330" y="10" width="120" height="40" as="geometry" />
        </mxCell>
        <mxCell id="LB9oBMyxxDvLUihg9mfi-4" value="" style="edgeStyle=orthogonalEdgeStyle;rounded=0;orthogonalLoop=1;jettySize=auto;html=1;" edge="1" parent="WIyWlLk6GJQsqaUBKTNV-1">
          <mxGeometry relative="1" as="geometry">
            <mxPoint x="390" y="120" as="sourcePoint" />
            <mxPoint x="390" y="140" as="targetPoint" />
          </mxGeometry>
        </mxCell>
        <mxCell id="LB9oBMyxxDvLUihg9mfi-6" value="" style="edgeStyle=orthogonalEdgeStyle;rounded=0;orthogonalLoop=1;jettySize=auto;html=1;" edge="1" parent="WIyWlLk6GJQsqaUBKTNV-1" target="LB9oBMyxxDvLUihg9mfi-5">
          <mxGeometry relative="1" as="geometry">
            <mxPoint x="390" y="200" as="sourcePoint" />
          </mxGeometry>
        </mxCell>
        <mxCell id="LB9oBMyxxDvLUihg9mfi-8" value="" style="edgeStyle=orthogonalEdgeStyle;rounded=0;orthogonalLoop=1;jettySize=auto;html=1;" edge="1" parent="WIyWlLk6GJQsqaUBKTNV-1" source="LB9oBMyxxDvLUihg9mfi-5">
          <mxGeometry relative="1" as="geometry">
            <mxPoint x="390.0999999999999" y="390" as="targetPoint" />
          </mxGeometry>
        </mxCell>
        <mxCell id="LB9oBMyxxDvLUihg9mfi-9" value="YES" style="edgeLabel;html=1;align=center;verticalAlign=middle;resizable=0;points=[];" vertex="1" connectable="0" parent="LB9oBMyxxDvLUihg9mfi-8">
          <mxGeometry x="-0.1429" y="-2" relative="1" as="geometry">
            <mxPoint as="offset" />
          </mxGeometry>
        </mxCell>
        <mxCell id="LB9oBMyxxDvLUihg9mfi-35" style="edgeStyle=orthogonalEdgeStyle;rounded=0;orthogonalLoop=1;jettySize=auto;html=1;entryX=0.5;entryY=1;entryDx=0;entryDy=0;" edge="1" parent="WIyWlLk6GJQsqaUBKTNV-1" source="LB9oBMyxxDvLUihg9mfi-5" target="LB9oBMyxxDvLUihg9mfi-15">
          <mxGeometry relative="1" as="geometry" />
        </mxCell>
        <mxCell id="LB9oBMyxxDvLUihg9mfi-5" value="is Expo CLI installed?" style="rhombus;whiteSpace=wrap;html=1;" vertex="1" parent="WIyWlLk6GJQsqaUBKTNV-1">
          <mxGeometry x="330" y="240" width="120" height="100" as="geometry" />
        </mxCell>
        <mxCell id="LB9oBMyxxDvLUihg9mfi-20" value="" style="edgeStyle=orthogonalEdgeStyle;rounded=0;orthogonalLoop=1;jettySize=auto;html=1;" edge="1" parent="WIyWlLk6GJQsqaUBKTNV-1" target="LB9oBMyxxDvLUihg9mfi-21">
          <mxGeometry relative="1" as="geometry">
            <mxPoint x="390.0999999999999" y="430" as="sourcePoint" />
            <mxPoint x="390" y="540" as="targetPoint" />
          </mxGeometry>
        </mxCell>
        <mxCell id="LB9oBMyxxDvLUihg9mfi-17" style="edgeStyle=orthogonalEdgeStyle;rounded=0;orthogonalLoop=1;jettySize=auto;html=1;entryX=1;entryY=0.5;entryDx=0;entryDy=0;" edge="1" parent="WIyWlLk6GJQsqaUBKTNV-1" source="LB9oBMyxxDvLUihg9mfi-15" target="LB9oBMyxxDvLUihg9mfi-53">
          <mxGeometry relative="1" as="geometry">
            <mxPoint x="470" y="170" as="targetPoint" />
          </mxGeometry>
        </mxCell>
        <mxCell id="LB9oBMyxxDvLUihg9mfi-15" value="install again" style="rounded=1;whiteSpace=wrap;html=1;" vertex="1" parent="WIyWlLk6GJQsqaUBKTNV-1">
          <mxGeometry x="530" y="140" width="120" height="60" as="geometry" />
        </mxCell>
        <mxCell id="LB9oBMyxxDvLUihg9mfi-32" style="edgeStyle=orthogonalEdgeStyle;rounded=0;orthogonalLoop=1;jettySize=auto;html=1;" edge="1" parent="WIyWlLk6GJQsqaUBKTNV-1" source="LB9oBMyxxDvLUihg9mfi-21" target="LB9oBMyxxDvLUihg9mfi-28">
          <mxGeometry relative="1" as="geometry" />
        </mxCell>
        <mxCell id="LB9oBMyxxDvLUihg9mfi-21" value="Project folder&amp;nbsp; &quot;MyApp&quot;&lt;div&gt;created&lt;/div&gt;" style="shape=parallelogram;perimeter=parallelogramPerimeter;whiteSpace=wrap;html=1;fixedSize=1;" vertex="1" parent="WIyWlLk6GJQsqaUBKTNV-1">
          <mxGeometry x="315" y="460" width="150" height="60" as="geometry" />
        </mxCell>
        <mxCell id="LB9oBMyxxDvLUihg9mfi-34" value="" style="edgeStyle=orthogonalEdgeStyle;rounded=0;orthogonalLoop=1;jettySize=auto;html=1;" edge="1" parent="WIyWlLk6GJQsqaUBKTNV-1" source="LB9oBMyxxDvLUihg9mfi-28" target="LB9oBMyxxDvLUihg9mfi-37">
          <mxGeometry relative="1" as="geometry">
            <mxPoint x="390" y="650" as="targetPoint" />
          </mxGeometry>
        </mxCell>
        <mxCell id="LB9oBMyxxDvLUihg9mfi-28" value="Start project&amp;nbsp;&lt;div&gt;cmd: npx start expo&lt;/div&gt;" style="shape=parallelogram;perimeter=parallelogramPerimeter;whiteSpace=wrap;html=1;fixedSize=1;" vertex="1" parent="WIyWlLk6GJQsqaUBKTNV-1">
          <mxGeometry x="290" y="550" width="200" height="60" as="geometry" />
        </mxCell>
        <mxCell id="LB9oBMyxxDvLUihg9mfi-36" value="no" style="text;html=1;align=center;verticalAlign=middle;resizable=0;points=[];autosize=1;strokeColor=none;fillColor=none;" vertex="1" parent="WIyWlLk6GJQsqaUBKTNV-1">
          <mxGeometry x="540" y="288" width="40" height="30" as="geometry" />
        </mxCell>
        <mxCell id="LB9oBMyxxDvLUihg9mfi-40" value="" style="edgeStyle=orthogonalEdgeStyle;rounded=0;orthogonalLoop=1;jettySize=auto;html=1;" edge="1" parent="WIyWlLk6GJQsqaUBKTNV-1" source="LB9oBMyxxDvLUihg9mfi-37" target="LB9oBMyxxDvLUihg9mfi-39">
          <mxGeometry relative="1" as="geometry" />
        </mxCell>
        <mxCell id="LB9oBMyxxDvLUihg9mfi-42" value="" style="edgeStyle=orthogonalEdgeStyle;rounded=0;orthogonalLoop=1;jettySize=auto;html=1;" edge="1" parent="WIyWlLk6GJQsqaUBKTNV-1" source="LB9oBMyxxDvLUihg9mfi-37" target="LB9oBMyxxDvLUihg9mfi-41">
          <mxGeometry relative="1" as="geometry" />
        </mxCell>
        <mxCell id="LB9oBMyxxDvLUihg9mfi-43" value="YES" style="edgeLabel;html=1;align=center;verticalAlign=middle;resizable=0;points=[];" vertex="1" connectable="0" parent="LB9oBMyxxDvLUihg9mfi-42">
          <mxGeometry x="-0.0667" y="-3" relative="1" as="geometry">
            <mxPoint as="offset" />
          </mxGeometry>
        </mxCell>
        <mxCell id="LB9oBMyxxDvLUihg9mfi-37" value="Is Expo Go installed" style="rhombus;whiteSpace=wrap;html=1;" vertex="1" parent="WIyWlLk6GJQsqaUBKTNV-1">
          <mxGeometry x="350" y="660" width="80" height="80" as="geometry" />
        </mxCell>
        <mxCell id="LB9oBMyxxDvLUihg9mfi-45" style="edgeStyle=orthogonalEdgeStyle;rounded=0;orthogonalLoop=1;jettySize=auto;html=1;entryX=1;entryY=0.5;entryDx=0;entryDy=0;" edge="1" parent="WIyWlLk6GJQsqaUBKTNV-1" source="LB9oBMyxxDvLUihg9mfi-39" target="LB9oBMyxxDvLUihg9mfi-28">
          <mxGeometry relative="1" as="geometry">
            <Array as="points">
              <mxPoint x="550" y="580" />
            </Array>
          </mxGeometry>
        </mxCell>
        <mxCell id="LB9oBMyxxDvLUihg9mfi-39" value="install expo go" style="whiteSpace=wrap;html=1;" vertex="1" parent="WIyWlLk6GJQsqaUBKTNV-1">
          <mxGeometry x="490" y="670" width="120" height="60" as="geometry" />
        </mxCell>
        <mxCell id="LB9oBMyxxDvLUihg9mfi-47" value="" style="edgeStyle=orthogonalEdgeStyle;rounded=0;orthogonalLoop=1;jettySize=auto;html=1;" edge="1" parent="WIyWlLk6GJQsqaUBKTNV-1" source="LB9oBMyxxDvLUihg9mfi-41" target="LB9oBMyxxDvLUihg9mfi-46">
          <mxGeometry relative="1" as="geometry" />
        </mxCell>
        <mxCell id="LB9oBMyxxDvLUihg9mfi-41" value="Scan QR code" style="whiteSpace=wrap;html=1;" vertex="1" parent="WIyWlLk6GJQsqaUBKTNV-1">
          <mxGeometry x="330" y="800" width="120" height="60" as="geometry" />
        </mxCell>
        <mxCell id="LB9oBMyxxDvLUihg9mfi-44" value="NO" style="text;html=1;align=center;verticalAlign=middle;resizable=0;points=[];autosize=1;strokeColor=none;fillColor=none;" vertex="1" parent="WIyWlLk6GJQsqaUBKTNV-1">
          <mxGeometry x="430" y="678" width="40" height="30" as="geometry" />
        </mxCell>
        <mxCell id="LB9oBMyxxDvLUihg9mfi-49" value="" style="edgeStyle=orthogonalEdgeStyle;rounded=0;orthogonalLoop=1;jettySize=auto;html=1;" edge="1" parent="WIyWlLk6GJQsqaUBKTNV-1" source="LB9oBMyxxDvLUihg9mfi-46" target="LB9oBMyxxDvLUihg9mfi-48">
          <mxGeometry relative="1" as="geometry" />
        </mxCell>
        <mxCell id="LB9oBMyxxDvLUihg9mfi-46" value="Navigate the screens and modify" style="whiteSpace=wrap;html=1;" vertex="1" parent="WIyWlLk6GJQsqaUBKTNV-1">
          <mxGeometry x="330" y="890" width="120" height="60" as="geometry" />
        </mxCell>
        <mxCell id="LB9oBMyxxDvLUihg9mfi-51" value="" style="edgeStyle=orthogonalEdgeStyle;rounded=0;orthogonalLoop=1;jettySize=auto;html=1;" edge="1" parent="WIyWlLk6GJQsqaUBKTNV-1" source="LB9oBMyxxDvLUihg9mfi-48" target="LB9oBMyxxDvLUihg9mfi-50">
          <mxGeometry relative="1" as="geometry" />
        </mxCell>
        <mxCell id="LB9oBMyxxDvLUihg9mfi-48" value="Test and deploy" style="whiteSpace=wrap;html=1;" vertex="1" parent="WIyWlLk6GJQsqaUBKTNV-1">
          <mxGeometry x="330" y="980" width="120" height="60" as="geometry" />
        </mxCell>
        <mxCell id="LB9oBMyxxDvLUihg9mfi-50" value="End" style="ellipse;whiteSpace=wrap;html=1;" vertex="1" parent="WIyWlLk6GJQsqaUBKTNV-1">
          <mxGeometry x="350" y="1070" width="80" height="40" as="geometry" />
        </mxCell>
        <mxCell id="LB9oBMyxxDvLUihg9mfi-52" value="Create project&amp;nbsp;&lt;span style=&quot;color: light-dark(rgb(0, 0, 0), rgb(255, 255, 255)); background-color: transparent;&quot;&gt;&amp;gt;expo init MyApp&lt;/span&gt;" style="rounded=0;whiteSpace=wrap;html=1;" vertex="1" parent="WIyWlLk6GJQsqaUBKTNV-1">
          <mxGeometry x="330" y="390" width="120" height="40" as="geometry" />
        </mxCell>
        <mxCell id="LB9oBMyxxDvLUihg9mfi-53" value="Install expo CLI" style="rounded=0;whiteSpace=wrap;html=1;" vertex="1" parent="WIyWlLk6GJQsqaUBKTNV-1">
          <mxGeometry x="330" y="140" width="120" height="60" as="geometry" />
        </mxCell>
        <mxCell id="LB9oBMyxxDvLUihg9mfi-54" value="open cmd" style="rounded=0;whiteSpace=wrap;html=1;" vertex="1" parent="WIyWlLk6GJQsqaUBKTNV-1">
          <mxGeometry x="330" y="80" width="120" height="40" as="geometry" />
        </mxCell>
      </root>
    </mxGraphModel>
  </diagram>
</mxfile>
